<?xml version="1.0" encoding="UTF-8"?><svg id="Warstwa_1" xmlns="http://www.w3.org/2000/svg" viewBox="0 0 1300 1300"><g><path d="m716.74,402.19c-5.84,11.83-15.49,18.72-28.89,20.54-.52.1-1.1.21-1.62.26,1.36,5.94,2.71,11.94,4.02,17.94.83,5.11-.47,9.07-3.81,11.78-3.39,2.71-7.09,3.75-11.21,3.08-4.12-.63-6.83-3.44-8.24-8.45-5.53-25.4-11.58-50.63-18.09-75.77-.99-5.01.1-8.86,3.29-11.52,3.18-2.71,6.78-3.81,10.9-3.34,5.53-4.75,12.2-7.3,20.13-7.72,6.15-.37,12.46.42,18.88,2.29,6.41,1.88,11.05,5.79,13.97,11.73,5.16,12.99,5.42,26.07.68,39.16Zm-20.86-15.39c.26-2.87.16-5.58-.31-8.08-.1-.31-.16-.73-.21-1.31-.1-1.09-.26-2.09-.52-3.02-.1-.05-.21-.05-.37-.1-2.19-.63-4.43-1.04-6.73-1.2h-.16c-.99-.05-2.19-.05-3.65.05-1.46.05-2.82.31-4.12.73-1.3.47-2.19,1.25-2.71,2.35-.42.99-.89,1.88-1.41,2.76,1.72,6.88,3.44,13.77,5.06,20.65.1,0,.16,0,.26-.05.1,0,.26-.05.42-.1.63-.1,1.3-.26,2.09-.37,1.93-.26,3.91-.73,5.94-1.36,1.98-.63,3.44-1.67,4.38-3.18,1.15-2.29,1.83-4.85,2.03-7.77Z"/><path d="m815.5,375.33c4.22,11.63,4.17,23.31-.16,35.04-4.43,11.16-11.47,20.39-21.27,27.64-9.75,7.25-20.91,9.07-33.48,5.53-12.57-4.85-21.01-13.35-25.29-25.55-4.33-12.2-5.21-24.56-2.71-37.18,2.56-11.21,8.34-19.77,17.36-25.65,9.02-5.9,19.14-8.45,30.4-7.72,4.48.42,7.93,2.34,10.27,5.84,12.36,3.02,20.65,10.37,24.87,22.05Zm-21.38,19.66c.57-4.33.31-8.34-.73-12.05-1.1-3.65-3.6-5.74-7.51-6.15-4.43-.42-7.61-2.19-9.49-5.32-4.64.05-8.86,1.2-12.72,3.34-3.81,2.09-6.31,5.58-7.46,10.38-1.1,5.21-1.2,11.37-.31,18.56.89,7.14,3.75,12.31,8.6,15.43,5.84,2.66,11.21,2.34,16.11-1.04,4.95-3.39,8.6-7.72,10.95-13.04,1.1-2.4,1.93-5.79,2.56-10.12Z"/><path d="m914.99,389.57c-.73,3.34-2.56,5.79-5.58,7.3-8.03,3.6-16.06,7.14-24.09,10.74-1.93.83-3.96,1.72-6.05,2.5-2.35.94-4.64,1.88-6.99,2.92,9.8,10.74,19.76,21.32,29.98,31.7,3.39,3.91,4.38,7.82,2.87,11.78-1.56,3.96-4.28,6.72-8.24,8.24-3.96,1.51-7.82.52-11.68-2.97-10.17-10.32-20.13-20.86-29.83-31.54l-3.23,18.93c-.73,3.29-2.61,5.69-5.63,7.25-3.02,1.56-6.05,1.93-9.18,1.2-3.39-1.04-5.79-2.97-7.2-5.74-1.36-2.76-1.77-5.79-1.2-9.12,1.25-7.61,2.56-15.23,3.81-22.89.68-3.8,1.3-7.61,1.93-11.42.47-2.66.94-5.37,1.46-8.03,1.83-8.45,2.92-16.95,3.29-25.5.42-5.16,2.56-8.6,6.47-10.32,3.86-1.72,7.77-1.72,11.58,0,3.86,1.72,5.89,5.17,6.1,10.32-.16,5.53-.68,10.95-1.51,16.43,7.2-3.55,14.6-6.83,22.11-9.8,4.48-1.77,8.81-3.6,13.09-5.48,3.08-1.41,6.15-1.77,9.13-1.15,3.02.63,5.48,2.45,7.35,5.48,1.56,2.76,1.93,5.84,1.25,9.18Z"/><path d="m1009.58,375.33c4.22,11.63,4.17,23.31-.16,35.04-4.43,11.16-11.47,20.39-21.27,27.64-9.75,7.25-20.91,9.07-33.48,5.53-12.57-4.85-21.01-13.35-25.29-25.55-4.33-12.2-5.21-24.56-2.71-37.18,2.56-11.21,8.34-19.77,17.36-25.65,9.02-5.9,19.14-8.45,30.4-7.72,4.48.42,7.93,2.34,10.27,5.84,12.36,3.02,20.65,10.37,24.87,22.05Zm-21.38,19.66c.57-4.33.31-8.34-.73-12.05-1.1-3.65-3.6-5.74-7.51-6.15-4.43-.42-7.61-2.19-9.49-5.32-4.64.05-8.86,1.2-12.72,3.34-3.81,2.09-6.31,5.58-7.46,10.38-1.1,5.21-1.2,11.37-.31,18.56.89,7.14,3.75,12.31,8.6,15.43,5.84,2.66,11.21,2.34,16.11-1.04,4.95-3.39,8.6-7.72,10.95-13.04,1.1-2.4,1.93-5.79,2.56-10.12Z"/><path d="m1072.16,393.06c1.46,6.36,2.45,12.78,2.92,19.29.52,6.52-.63,12.88-3.34,18.98-2.87,5.84-7.35,10.43-13.45,13.77-6.1,3.34-12.46,3.96-18.98,1.88-12.72-4.9-19.19-14.08-19.45-27.53.63-5.16,2.92-8.6,6.88-10.32,4.02-1.72,7.87-1.72,11.63,0,3.75,1.72,5.63,5.17,5.58,10.32-.05.94.16,1.83.52,2.77.37.88.94,1.46,1.67,1.67.73.26,1.62-.1,2.61-1.1,1.67-1.98,2.5-4.43,2.5-7.25s-.26-5.42-.78-7.93c-3.18-17.1-7.51-33.89-12.98-50.43-1.36-5.01-.42-8.86,2.76-11.52,3.23-2.66,6.94-3.7,11.21-3.08s7.35,3.34,9.28,8.19c4.54,13.61,8.29,27.48,11.21,41.51.1.26.16.52.21.78Z"/><path d="m664.39,563.8c8.7,1.65,17.35,3.61,25.94,5.93-.03-.22-.04-.42-.07-.64-1.3-6-2.66-11.99-4.01-17.94.52-.05,1.09-.16,1.62-.26,13.4-1.82,23.05-8.71,28.89-20.55,4.74-13.09,4.48-26.18-.68-39.16-2.92-5.94-7.56-9.86-13.97-11.73-6.41-1.88-12.72-2.66-18.88-2.29-7.93.42-14.6,2.97-20.13,7.72-4.12-.47-7.72.63-10.9,3.34-3.18,2.66-4.28,6.52-3.28,11.53,5.52,21.27,10.67,42.62,15.48,64.06Zm12.73-59.43c.52-1.09,1.41-1.88,2.71-2.34,1.3-.42,2.66-.68,4.12-.73,1.46-.1,2.66-.1,3.65-.06h.16c2.29.16,4.54.58,6.73,1.2.16.05.26.05.37.1.26.94.42,1.93.52,3.02.05.57.1.99.21,1.3.47,2.5.57,5.21.31,8.09-.21,2.92-.89,5.47-2.03,7.77-.94,1.52-2.4,2.56-4.38,3.18-2.03.63-4.01,1.09-5.94,1.36-.78.1-1.46.26-2.09.36-.16.05-.31.1-.42.1-.1.05-.16.05-.26.05-1.62-6.88-3.34-13.77-5.06-20.65.52-.89.99-1.77,1.41-2.77Z"/><path d="m815.5,503.49c4.22,11.63,4.17,23.31-.16,35.04-4.43,11.16-11.47,20.39-21.27,27.64-9.75,7.25-20.91,9.07-33.48,5.53-12.57-4.85-21.01-13.35-25.29-25.55-4.33-12.2-5.21-24.56-2.71-37.18,2.56-11.21,8.34-19.76,17.36-25.65,9.02-5.89,19.14-8.45,30.4-7.72,4.48.42,7.93,2.35,10.27,5.84,12.36,3.02,20.65,10.38,24.87,22.06Zm-21.38,19.66c.57-4.33.31-8.34-.73-12.04-1.1-3.65-3.6-5.74-7.51-6.15-4.43-.42-7.61-2.19-9.49-5.32-4.64.05-8.86,1.2-12.72,3.34-3.81,2.09-6.31,5.58-7.46,10.37-1.1,5.21-1.2,11.37-.31,18.56.89,7.15,3.75,12.31,8.6,15.43,5.84,2.66,11.21,2.35,16.11-1.04,4.95-3.39,8.6-7.72,10.95-13.04,1.1-2.4,1.93-5.79,2.56-10.12Z"/><path d="m914.99,517.72c-.73,3.34-2.56,5.79-5.58,7.3-8.03,3.6-16.06,7.15-24.09,10.74-1.93.83-3.96,1.72-6.05,2.5-2.35.94-4.64,1.88-6.99,2.92,9.8,10.74,19.76,21.33,29.98,31.7,3.39,3.91,4.38,7.82,2.87,11.78-1.56,3.96-4.28,6.73-8.24,8.24-3.96,1.51-7.82.52-11.68-2.97-10.17-10.32-20.13-20.86-29.83-31.55l-3.23,18.93c-.73,3.28-2.61,5.68-5.63,7.25-3.02,1.56-6.05,1.93-9.18,1.2-3.39-1.04-5.79-2.97-7.2-5.74-1.36-2.77-1.77-5.79-1.2-9.13,1.25-7.61,2.56-15.23,3.81-22.89.68-3.81,1.3-7.61,1.93-11.42.47-2.66.94-5.37,1.46-8.03,1.83-8.45,2.92-16.94,3.29-25.5.42-5.17,2.56-8.61,6.47-10.32,3.86-1.72,7.77-1.72,11.58,0,3.86,1.72,5.89,5.16,6.1,10.32-.16,5.53-.68,10.95-1.51,16.42,7.2-3.55,14.6-6.83,22.11-9.8,4.48-1.77,8.81-3.6,13.09-5.47,3.08-1.41,6.15-1.77,9.13-1.15,3.02.63,5.48,2.45,7.35,5.47,1.56,2.77,1.93,5.84,1.25,9.18Z"/><path d="m1009.58,503.49c4.22,11.63,4.17,23.31-.16,35.04-4.43,11.16-11.47,20.39-21.27,27.64-9.75,7.25-20.91,9.07-33.48,5.53-12.57-4.85-21.01-13.35-25.29-25.55-4.33-12.2-5.21-24.56-2.71-37.18,2.56-11.21,8.34-19.76,17.36-25.65,9.02-5.89,19.14-8.45,30.4-7.72,4.48.42,7.93,2.35,10.27,5.84,12.36,3.02,20.65,10.38,24.87,22.06Zm-21.38,19.66c.57-4.33.31-8.34-.73-12.04-1.1-3.65-3.6-5.74-7.51-6.15-4.43-.42-7.61-2.19-9.49-5.32-4.64.05-8.86,1.2-12.72,3.34-3.81,2.09-6.31,5.58-7.46,10.37-1.1,5.21-1.2,11.37-.31,18.56.89,7.15,3.75,12.31,8.6,15.43,5.84,2.66,11.21,2.35,16.11-1.04,4.95-3.39,8.6-7.72,10.95-13.04,1.1-2.4,1.93-5.79,2.56-10.12Z"/><path d="m1072.16,521.22c1.46,6.36,2.45,12.77,2.92,19.29.52,6.52-.63,12.88-3.34,18.98-2.87,5.84-7.35,10.43-13.45,13.77-6.1,3.34-12.46,3.96-18.98,1.88-12.72-4.9-19.19-14.08-19.45-27.53.63-5.17,2.92-8.61,6.88-10.32,4.02-1.72,7.87-1.72,11.63,0,3.75,1.72,5.63,5.16,5.58,10.32-.05.94.16,1.82.52,2.76.37.89.94,1.46,1.67,1.67.73.26,1.62-.1,2.61-1.09,1.67-1.98,2.5-4.44,2.5-7.25s-.26-5.42-.78-7.93c-3.18-17.1-7.51-33.89-12.98-50.42-1.36-5.01-.42-8.86,2.76-11.53,3.23-2.66,6.94-3.7,11.21-3.07,4.28.63,7.35,3.34,9.28,8.18,4.54,13.61,8.29,27.48,11.21,41.51.1.26.16.52.21.78Z"/><path d="m1154.34,467.4c3.91-1.72,7.82-1.72,11.63,0,3.81,1.72,5.74,5.16,5.89,10.37-.42,19.5-4.07,38.38-11,56.58-1.51,4.01-3.6,7.98-6.21,11.78-2.61,3.8-5.89,6.72-9.86,8.76-8.45,3.6-17.26,4.74-26.44,3.39-9.65-.36-17.89-3.96-24.66-10.69-5.32-6.88-7.87-14.76-7.56-23.57.57-18.98,3.13-37.7,7.72-56.11,1.46-4.96,4.28-7.77,8.4-8.45,4.12-.63,7.82.36,11.21,3.07,3.34,2.71,4.54,6.63,3.65,11.78-3.44,14.55-5.68,29.31-6.67,44.27,0,.52-.05,1.15-.1,1.77-.21,1.88-.26,3.86-.16,5.89.05,2.04.57,3.81,1.51,5.32.99,1.2,2.4,1.98,4.28,2.35,1.88.31,3.65.47,5.27.47.31,0,.63,0,.89.05.68,0,1.36.05,2.09.1,2.09.21,4.12.21,6.1-.05,1.93-.21,3.65-1.2,5.06-2.87,2.5-3.6,4.22-7.61,5.27-12.05.1-.36.21-.73.31-1.09,4.02-13.3,6.26-26.91,6.78-40.73.47-5.21,2.71-8.66,6.62-10.37Z"/></g><g><path d="m853.61,699.77c-9.25-11.74-23.49-19.15-39.08-20.34-15.93-1.21-31.79,4.23-43.61,14.96l-53.34,40.17c-6.03,4.54-7.24,13.12-2.7,19.15,4.54,6.04,13.13,7.24,19.15,2.7l53.88-40.57c.38-.29.75-.6,1.1-.92,6.39-5.96,14.71-8.89,23.44-8.21,7.98.61,15.15,4.25,19.68,10,8.82,11.18,6.91,28.79-4.26,39.25-.06.05-.11.11-.17.16l-162.62,157.63c-5.42,5.26-5.56,13.92-.3,19.34,2.68,2.77,6.25,4.16,9.82,4.16s6.86-1.28,9.52-3.86l162.54-157.56c21.55-20.27,24.62-53.66,6.95-76.06Z"/><path d="m694.31,722.01c-2.61-18.32,6.7-36.08,23.16-44.21l35.87-17.71c4.36-2.15,7.25-6.45,7.59-11.3.34-4.85-1.91-9.51-5.92-12.26-31.34-21.44-80.25-46.01-140.04-46.35l-6.5-190.44c.84-16.82-5.4-33.35-17.18-45.45-11.51-11.83-27.19-18.27-42.92-17.75-30.49,1.05-55.65,27.61-56.1,59.19l-.67,43.67-21.42-93.87c-.06-.29-.14-.57-.22-.85-8.44-28.39-37.8-46.11-66.82-40.35-28.89,5.74-49.25,33.22-46.35,62.55.03.31.07.62.12.93l17.49,103.46-24.39-56.39c-.27-.61-.57-1.2-.92-1.77-15.09-24.39-46.02-34.82-71.94-24.27-28.59,11.64-43.1,45.27-32.36,74.96.02.06.05.13.07.19l30.01,79.18c-17.26-10.6-39.36-12.22-57.65-2.57-13.52,7.13-23.46,19.36-28,34.46-4.64,15.43-2.97,31.7,4.7,45.82l121.67,240.1c2.41,4.76,7.22,7.5,12.21,7.5,2.08,0,4.19-.48,6.17-1.48,6.74-3.42,9.43-11.64,6.02-18.38l-121.76-240.28c-.07-.13-.14-.26-.21-.39-4.22-7.69-5.14-16.57-2.61-25,2.41-8.02,7.58-14.46,14.56-18.14,13.45-7.09,30.95-2.43,40.05,10.59l50.01,86.49c3.57,6.17,11.27,8.56,17.7,5.51,6.44-3.05,9.45-10.54,6.92-17.2l-74.19-195.77c-5.75-16.04,1.85-34.08,16.98-40.24,13.44-5.48,29.56-.08,37.88,12.56l68.83,159.12c2.75,6.35,9.81,9.64,16.44,7.68,6.63-1.96,10.76-8.57,9.6-15.39l-36.24-214.39c-1.3-15.33,9.39-29.6,24.5-32.6,15.18-3.02,30.54,6.16,35.15,20.93l46.58,204.18c1.54,6.75,7.87,11.28,14.76,10.56,6.88-.72,12.14-6.47,12.25-13.39l2.4-157.3c.24-17.23,13.56-31.7,29.69-32.25,8.07-.28,16.23,3.18,22.37,9.49,6.58,6.76,10.02,16.01,9.44,25.39-.03.44-.03.87-.02,1.31l6.54,191.73c-13.33,1.66-34.05,5.33-53.85,13.27-77.67,31.14-114.96,117.43-147.86,193.57-29.13,67.41-56.64,131.09-105.55,147.26-31.25,10.33-62.28,5.6-62.56,5.56-23.94-3.89-47.1-15.19-66.99-32.69-5.67-4.99-14.31-4.44-19.3,1.23-4.99,5.67-4.44,14.31,1.23,19.3,23.75,20.9,51.65,34.44,80.67,39.15,1.52.25,37.73,5.91,75.53-6.58,60.57-20.03,90.44-89.17,122.08-162.38,32.31-74.77,65.71-152.09,132.92-179.04,25.59-10.26,53.28-12.31,58.57-12.62,46.66-2.71,86.9,12.03,116.6,28.61l-13.79,6.81c-27.09,13.37-42.42,42.55-38.13,72.59,3.56,24.97-12.6,186.55-108.75,234.4-62.83,31.26-137.45,2.75-166.61-10.96-6.84-3.21-14.98-.27-18.19,6.56-3.21,6.84-.28,14.98,6.56,18.19,21.69,10.19,65.88,27.61,114.61,27.6,24.89,0,50.97-4.54,75.82-16.91,59.64-29.68,90.33-93.19,105.57-141.24,17.25-54.39,20.28-105.97,18.07-121.5Z"/><path d="m635.02,658.37c1.52-9.87-5.25-19.09-15.11-20.61-9.87-1.52-19.09,5.25-20.61,15.11-1.52,9.87,5.25,19.09,15.11,20.61,9.87,1.52,19.09-5.25,20.61-15.11Z"/></g><path d="m953,335.36c3.28,4.15,12.71,4.82,17.38.93.16-.14.35-.31.56-.51,10.44-8.49,9.51-7.78,18.9-17.44,3.21-3.7,4.15-7.44,2.82-11.28-1.32-3.84-3.79-6.47-7.41-8.02-1.12-.47-2.24-.71-3.37-.71-3.39-.02-6.08,2.2-7.43,3.38-3.77,3.28-1.71,1.5-13.13,12.63-9.91,5.93-11.86,16.55-8.32,21.02Z"/></svg>